<svg width="600" height="256" viewBox="0 0 600 256" fill="none" xmlns="http://www.w3.org/2000/svg">
<path fill-rule="evenodd" clip-rule="evenodd" d="M134.966 31.3179C133.551 31.3179 132.236 31.6213 131.023 32.0258C133.601 33.745 135.017 36.0205 135.725 38.5993C135.775 38.9533 135.876 39.2061 135.927 39.56C135.978 39.8634 136.028 40.1668 136.028 40.4702C136.23 44.92 134.865 45.4762 133.905 48.1056C132.439 51.4935 132.843 55.1342 134.612 58.067C134.764 58.421 134.966 58.8255 135.219 59.1795C133.298 46.3864 143.965 44.4649 145.937 40.4702C146.089 36.9812 143.207 34.6552 140.932 33.0371C138.758 31.7224 136.786 31.3179 134.966 31.3179ZM151.043 34.2001C150.841 35.3631 150.992 35.0597 150.942 35.6665C150.891 36.071 150.891 36.5767 150.841 36.9812C150.74 37.3857 150.639 37.7903 150.487 38.1948C150.386 38.5993 150.234 39.0038 150.083 39.4084C149.88 39.8129 149.729 40.1668 149.527 40.5714C149.375 40.7737 149.274 40.9759 149.122 41.1782C149.021 41.3298 148.92 41.4815 148.819 41.6332C148.566 41.9872 148.313 42.3412 148.06 42.6445C147.757 42.9479 147.504 43.3019 147.15 43.5547V43.6054C146.847 43.8582 146.544 44.1616 146.19 44.4144C145.128 45.2235 143.915 45.8302 142.803 46.5887C142.449 46.8416 142.095 47.0438 141.792 47.3472C141.438 47.6 141.134 47.8529 140.831 48.1563C140.477 48.4597 140.224 48.7631 139.921 49.117C139.668 49.4204 139.365 49.7744 139.163 50.1283C138.91 50.4823 138.657 50.8362 138.455 51.1902C138.253 51.5947 138.101 51.9487 137.899 52.3532C137.747 52.7577 137.595 53.1117 137.494 53.5162C137.343 53.9713 137.241 54.3758 137.14 54.7804C137.09 54.9827 137.09 55.2354 137.039 55.4377C136.989 55.64 136.989 55.8422 136.938 56.0445C136.938 56.449 136.888 56.9041 136.888 57.3086C136.888 57.612 136.888 57.9154 136.938 58.2188C136.938 58.6233 136.989 59.0278 137.09 59.4829C137.141 59.8875 137.242 60.292 137.343 60.6965C137.494 61.101 137.596 61.5056 137.747 61.9101C137.848 62.1629 138 62.4157 138.101 62.618L126.473 58.1177C124.502 57.5614 122.58 57.0558 120.609 56.6007C119.547 56.3479 118.485 56.095 117.424 55.8422C114.39 55.2354 111.306 54.7804 108.223 54.477C108.122 54.477 108.071 54.4263 107.97 54.4263C104.936 54.1229 101.954 53.9712 98.9203 53.9712C96.6958 53.9712 94.4713 54.0723 92.2974 54.2241C89.2135 54.4264 86.1296 54.8309 83.0457 55.3365C82.2874 55.4376 81.529 55.5893 80.7707 55.741C79.2034 56.0444 77.6868 56.3984 76.2207 56.7523C75.4623 56.9547 74.704 57.1569 73.9456 57.3591C73.1873 57.6625 72.4795 58.0165 71.7717 58.3199C71.2156 58.5727 70.6595 58.8255 70.1034 59.0784C70.0024 59.129 69.9011 59.129 69.8506 59.1794C69.345 59.4322 68.89 59.6345 68.4351 59.8873C68.2834 59.938 68.1823 59.9884 68.0811 60.039C67.525 60.2919 66.9689 60.5952 66.5139 60.8481C66.16 60.9998 65.8061 61.202 65.5028 61.3537C65.3511 61.4548 65.1489 61.5561 65.0478 61.6066C64.5928 61.8594 64.1378 62.1122 63.7333 62.365C63.2783 62.6179 62.8739 62.8707 62.52 63.1235C62.1661 63.3764 61.8122 63.5786 61.5089 63.8314C61.4582 63.8821 61.4078 63.8821 61.3572 63.9325C61.0539 64.1348 60.7 64.3876 60.3967 64.6404C60.3967 64.6404 60.346 64.691 60.2956 64.7415C60.0428 64.9438 59.79 65.146 59.5373 65.3482C59.4362 65.3989 59.335 65.4999 59.2339 65.5506C58.9812 65.7529 58.7284 66.0057 58.4756 66.2079C58.425 66.309 58.3239 66.3596 58.2733 66.4103C57.97 66.7137 57.6666 66.9665 57.3633 67.2699C57.3127 67.2699 57.3127 67.3205 57.2623 67.3709C56.9589 67.6238 56.6556 67.9272 56.3523 68.2306C56.3016 68.2812 56.3016 68.3316 56.2512 68.3316C55.9984 68.5844 55.7457 68.8373 55.4929 69.1407C55.3918 69.2417 55.2401 69.343 55.139 69.444C54.8862 69.7474 54.5829 70.0508 54.2795 70.3542C54.2289 70.4553 54.1279 70.5059 54.0772 70.6071C53.6728 71.0116 53.3189 71.4161 52.9145 71.8206C52.8638 71.8713 52.8134 71.9217 52.7628 71.9723C51.9539 72.8319 51.0944 73.6916 50.1844 74.45C49.2744 75.2591 48.3139 76.0176 47.3533 76.6749C46.3422 77.3829 45.3816 77.9896 44.3199 78.5964C43.3088 79.1526 42.2471 79.6583 41.1349 80.1134C40.0732 80.5685 38.961 80.973 37.8488 81.3269C35.7254 81.782 33.5515 82.6416 31.681 82.7933C31.2765 82.7933 30.8215 82.8944 30.4171 82.945C29.9621 83.0461 29.5576 83.1474 29.1532 83.2484C28.7487 83.4001 28.3443 83.5518 27.9398 83.7035C27.5354 83.8552 27.1309 84.0575 26.7265 84.2598C26.3726 84.5126 25.9682 84.7148 25.6143 84.9677C25.2604 85.2205 24.9065 85.5239 24.6031 85.8273C24.2493 86.0801 23.8954 86.4341 23.592 86.7375C23.2887 87.0914 22.9853 87.3948 22.7326 87.7488C22.4798 88.1533 22.1765 88.5073 21.9742 88.9118C21.7215 89.2657 21.4687 89.6703 21.2664 90.0748C21.0641 90.5299 20.862 90.9344 20.7103 91.3895C20.5587 91.794 20.407 92.2491 20.2553 92.7042C20.1543 93.1087 20.053 93.5132 20.0026 93.9177C20.0026 93.9684 19.9519 94.0188 19.9519 94.0694C19.8509 94.5246 19.8509 95.1314 19.8003 95.4348C19.7496 95.7887 19.6992 96.0921 19.6992 96.4461C19.6992 96.6484 19.6992 96.9011 19.7499 97.1034C19.8005 97.4574 19.8509 97.7608 19.9522 98.0642C20.0532 98.3675 20.1545 98.6709 20.306 98.9743V99.025C20.4577 99.3284 20.6599 99.6318 20.8621 99.9352C21.0645 100.239 21.2666 100.542 21.5194 100.845C21.7722 101.098 22.0755 101.402 22.3788 101.654C22.6822 101.958 22.9855 102.211 23.3394 102.463C24.5527 103.525 24.8561 103.879 26.4233 104.688C26.6761 104.84 26.9289 104.941 27.2322 105.093C27.2829 105.093 27.3332 105.143 27.3839 105.143C27.3839 105.245 27.3839 105.295 27.4345 105.396C27.4852 105.801 27.5862 106.205 27.6873 106.61C27.7883 107.065 27.9401 107.47 28.0918 107.823C28.2434 108.127 28.3445 108.43 28.4962 108.734C28.5468 108.835 28.5972 108.936 28.6479 108.986C28.8502 109.391 29.0523 109.745 29.2545 110.099C29.5073 110.453 29.7601 110.807 30.0129 111.161C30.2656 111.464 30.569 111.818 30.8723 112.122C31.1757 112.425 31.479 112.678 31.8329 112.981C31.8329 112.981 31.8835 113.032 31.9339 113.032C32.2373 113.285 32.5406 113.538 32.8439 113.74C33.1978 113.993 33.5517 114.195 33.9562 114.397C34.3101 114.599 34.7145 114.802 35.119 114.953C35.4223 115.105 35.7762 115.206 36.1301 115.307C36.1807 115.358 36.2311 115.358 36.3324 115.408C36.5347 115.459 36.7874 115.509 36.9896 115.56C36.8379 118.291 36.7873 120.869 37.1919 121.78C37.6469 122.791 39.8713 119.706 42.0958 116.167C41.7925 119.656 41.5902 123.752 42.0958 124.965C42.6519 126.229 45.6853 122.285 48.3142 117.937C84.1583 109.644 116.868 134.421 120.306 169.412C119.649 163.951 112.925 160.917 109.841 161.676C108.324 165.418 105.746 170.221 101.6 173.205C101.954 169.867 101.802 166.429 101.095 163.092C99.9824 167.744 97.8084 172.092 94.8256 175.834C90.0228 176.188 85.22 173.862 82.6922 170.373C82.4899 170.221 82.4394 169.918 82.2878 169.716C82.1361 169.362 81.9844 169.008 81.8833 168.654C81.7316 168.3 81.6305 167.946 81.58 167.592C81.5293 167.238 81.5293 166.884 81.5293 166.48C81.5293 166.227 81.5293 165.974 81.5293 165.721C81.58 165.367 81.681 165.013 81.7821 164.659C81.8831 164.305 81.9844 163.951 82.136 163.597C82.3383 163.243 82.4899 162.889 82.7427 162.535C83.6021 160.108 83.6021 158.136 82.0349 156.973C81.7316 156.771 81.4282 156.619 81.0743 156.468C80.872 156.417 80.6193 156.316 80.4171 156.265C80.2654 156.215 80.1643 156.164 80.0127 156.113C79.6588 156.012 79.3049 155.911 78.951 155.861C78.5971 155.76 78.2432 155.709 77.8893 155.709C77.5354 155.658 77.131 155.608 76.7771 155.608C76.5243 155.608 76.2715 155.659 76.0187 155.659C75.6143 155.659 75.2604 155.709 74.9065 155.81C74.5526 155.861 74.1987 155.911 73.8448 156.013C73.491 156.114 73.137 156.215 72.7831 156.367C72.4293 156.518 72.1259 156.67 71.772 156.822C71.4687 156.973 71.1654 157.176 70.8115 157.327C59.0319 165.013 66.0592 183.015 74.0976 188.223C71.0643 188.779 67.9804 189.436 67.1209 190.094C67.0703 190.144 67.0199 190.195 67.0199 190.195C69.1938 191.51 71.4688 192.622 73.8449 193.583C77.0805 194.645 80.5183 195.605 82.035 196.01V196.06C86.2311 196.92 90.4778 197.223 94.7751 196.971C117.171 195.403 135.523 178.363 138.86 155.911C138.961 156.367 139.062 156.771 139.163 157.226C139.315 158.136 139.517 159.097 139.618 160.058V160.109C139.719 160.564 139.77 161.019 139.82 161.423V161.626C139.871 162.081 139.922 162.536 139.922 162.94C139.972 163.496 140.023 164.053 140.023 164.609V165.418C140.023 165.671 140.073 165.974 140.073 166.227C140.073 166.53 140.023 166.834 140.023 167.137V167.845C140.023 168.199 139.972 168.502 139.972 168.856C139.972 169.059 139.972 169.261 139.921 169.514C139.921 169.868 139.871 170.222 139.871 170.626C139.82 170.778 139.82 170.93 139.82 171.081C139.769 171.486 139.719 171.84 139.668 172.244C139.668 172.396 139.668 172.548 139.618 172.699C139.567 173.205 139.466 173.66 139.415 174.166V174.217V174.267C139.314 174.722 139.213 175.228 139.112 175.683V175.835C139.011 176.29 138.91 176.745 138.809 177.2C138.809 177.251 138.758 177.352 138.758 177.402C138.657 177.857 138.556 178.312 138.404 178.768V178.919C138.252 179.425 138.101 179.88 138 180.335C137.949 180.386 137.949 180.436 137.949 180.436C137.797 180.942 137.646 181.447 137.494 181.953C137.292 182.459 137.14 182.914 136.938 183.419C136.736 183.925 136.584 184.431 136.382 184.886C136.18 185.392 135.977 185.847 135.775 186.352H135.724C135.522 186.807 135.32 187.313 135.067 187.768C135.017 187.92 134.966 188.021 134.916 188.122C134.865 188.173 134.865 188.223 134.815 188.274C131.528 194.898 126.675 200.713 120.608 205.264C120.204 205.517 119.799 205.82 119.395 206.123C119.294 206.224 119.142 206.275 119.041 206.376C118.687 206.629 118.333 206.882 117.929 207.135L118.081 207.438H118.131C118.839 207.337 119.547 207.236 120.255 207.135H120.305C121.62 206.932 122.934 206.68 124.249 206.427C124.602 206.376 125.007 206.275 125.361 206.174C125.614 206.123 125.816 206.073 126.069 206.022C126.422 205.972 126.776 205.871 127.13 205.82C127.434 205.719 127.737 205.668 128.04 205.567C133.096 204.354 138 202.685 142.701 200.713C134.663 211.686 123.895 220.534 111.306 226.35C117.12 225.945 122.934 224.984 128.546 223.366C148.92 217.349 166.058 203.646 176.321 185.189C174.248 196.87 169.597 207.994 162.722 217.703C167.625 214.467 172.125 210.725 176.22 206.477C187.544 194.645 194.976 179.627 197.504 163.497C199.223 171.486 199.728 179.728 198.97 187.869C235.472 136.95 202.003 84.1593 188 70.2538C187.949 70.1527 187.898 70.1021 187.898 70.0009C187.848 70.0516 187.848 70.0516 187.848 70.102C187.848 70.0514 187.848 70.0514 187.797 70.0009C187.797 70.6077 187.747 71.2145 187.696 71.8213C187.544 72.9843 187.393 74.0967 187.191 75.2092C186.938 76.3216 186.634 77.434 186.331 78.5465C185.977 79.6084 185.573 80.7208 185.118 81.7827C184.663 82.794 184.157 83.8559 183.601 84.8672C183.045 85.828 182.438 86.8393 181.781 87.7494C181.124 88.7102 180.416 89.6204 179.708 90.4799C178.95 91.3901 178.141 92.1992 177.332 93.0082C176.827 93.4633 176.372 93.8679 175.866 94.2724C175.462 94.6263 175.108 94.9297 174.703 95.2837C173.793 95.9916 172.883 96.649 171.872 97.2558C170.912 97.8625 169.9 98.4693 168.889 98.975C167.828 99.4806 166.766 99.9357 165.704 100.391C164.643 100.795 163.53 101.149 162.418 101.453C161.306 101.756 160.143 102.009 159.031 102.211C157.868 102.414 156.705 102.515 155.593 102.616C154.784 102.666 153.975 102.717 153.166 102.717C152.004 102.717 150.841 102.616 149.729 102.514C148.566 102.413 147.403 102.262 146.291 102.009C145.128 101.806 144.016 101.503 142.904 101.149H142.853C143.965 101.048 145.077 100.947 146.19 100.745C147.352 100.542 148.465 100.29 149.577 99.9861C150.689 99.6827 151.801 99.3288 152.863 98.9242C153.975 98.5197 155.037 98.0141 156.048 97.5084C157.11 97.0027 158.07 96.4465 159.081 95.8397C160.042 95.1824 161.003 94.5251 161.913 93.8171C162.823 93.1092 163.682 92.3507 164.491 91.5417C165.35 90.7832 166.109 89.9236 166.867 89.064C167.625 88.1538 168.333 87.2436 168.99 86.3334C169.091 86.1817 169.193 85.9795 169.294 85.8278C169.799 85.0187 170.305 84.2097 170.76 83.4006C171.316 82.3893 171.822 81.378 172.276 80.3161C172.732 79.2543 173.136 78.1924 173.49 77.0799C173.844 76.0181 174.097 74.9056 174.349 73.7932C174.552 72.6302 174.754 71.5177 174.855 70.4053C174.956 69.2423 175.057 68.0793 175.057 66.9668C175.057 66.1578 175.006 65.3487 174.956 64.5397C174.855 63.3767 174.703 62.2642 174.552 61.1518C174.349 59.9888 174.097 58.8764 173.793 57.7639C173.439 56.7021 173.086 55.5896 172.681 54.5277C172.277 53.4658 171.771 52.404 171.266 51.3927C170.709 50.3813 170.153 49.37 169.547 48.4093C168.889 47.4486 168.232 46.5384 167.524 45.6282C166.766 44.7686 166.008 43.909 165.199 43.0494C164.794 42.6448 164.339 42.1897 163.884 41.7852C161.609 40.0154 159.233 38.3468 156.857 36.8298C156.503 36.6275 156.2 36.4758 155.846 36.3241C154.178 35.2623 152.61 34.7057 151.043 34.2001Z" fill="#E0234E"/>
<path d="M309.5 94.5H297.5V122H270V134H297.5V161.5H309.5V134H337V122H309.5V94.5Z" fill="url(#paint0_linear_2312_3)"/>
<path d="M535.344 165.613H560.172V105.999L532.199 78.027L514.643 95.5835L535.344 116.284V165.613ZM560.237 178.06H524.076H473.634L452.933 157.359L461.711 148.581L478.809 165.678H513.988L479.333 130.959L488.177 122.115L522.832 156.769V121.591L505.799 104.558L514.512 95.8455L471.472 52.6094H429.022H385L409.763 77.3719V77.4374H409.894H461.122L479.268 95.5835L452.737 122.115L434.591 103.969V89.8842H409.763V114.254L452.737 157.228L435.246 174.719L463.218 202.691H505.668H585L560.237 178.06Z" fill="#231F20"/>
<defs>
<linearGradient id="paint0_linear_2312_3" x1="270" y1="94.5" x2="337" y2="161.5" gradientUnits="userSpaceOnUse">
<stop stop-color="#E0234E"/>
<stop offset="1" stop-color="#231F20"/>
</linearGradient>
</defs>
</svg>
